<svg width="119" height="111" viewBox="0 0 119 111" fill="none" xmlns="http://www.w3.org/2000/svg">
<path fill-rule="evenodd" clip-rule="evenodd" d="M50.866 0.206861C47.3134 0.688975 43.429 2.75246 40.2678 5.83652C35.7589 10.2356 33.4662 16.1676 33.8355 22.4791C34.1783 28.3412 36.4396 32.5745 41.1954 36.2584C43.0114 37.665 46.3309 39.6498 46.8674 39.6498C46.9506 39.6498 47.5514 38.768 48.2031 37.69C48.8544 36.6125 50.6358 34.524 52.1612 33.0493L54.9351 30.368L52.411 28.9546C45.8634 25.2888 42.6898 21.5136 41.8788 16.4247C41.2359 12.3917 42.743 7.80432 45.625 5.021C47.8194 2.9015 49.3389 2.13532 52.264 1.67354C57.1086 0.908694 61.1357 2.28835 64.7177 5.94055C67.5174 8.79522 69.6158 12.6378 71.2908 17.9781C72.7447 22.6125 73.0601 23.3046 73.4937 22.8099C73.6559 22.6245 73.716 17.9017 73.6305 12.06C73.5067 3.60366 73.3947 1.64086 73.0366 1.64086C72.7937 1.64086 72.3692 2.08664 72.0933 2.6311C70.9875 4.81528 69.7402 4.7706 63.7206 2.33069C58.4783 0.206193 55.0462 -0.360939 50.866 0.206861ZM67.8439 28.3152C62.4907 29.14 56.6512 31.8787 53.3784 35.0991C51.6855 36.7648 49.0154 40.9241 48.0669 43.3724C46.0779 48.5073 45.5206 56.5318 46.7802 61.8971C48.8002 70.5015 54.2968 76.4435 62.2934 78.667C65.9741 79.6906 72.5968 79.9447 75.9196 79.1895C82.6787 77.6541 86.9513 73.5678 88.4114 67.243C88.9756 64.8008 89.0079 64.3223 88.6093 64.3223C88.4476 64.3223 88.1352 65.1102 87.9154 66.0727C86.1266 73.9036 81.2594 77.6645 72.9269 77.6548C67.1713 77.6481 64.1995 76.4852 60.6427 72.847C58.0006 70.1444 56.0727 66.5088 55.0615 62.3219C54.1417 58.5133 54.2335 48.8383 55.2247 45.1511C56.9052 38.8993 60.4726 33.4947 64.6677 30.8444C68.1753 28.6286 73.83 28.3648 77.5263 30.2453C81.4387 32.2358 84.2518 35.7636 86.2614 41.2002C86.9193 42.9803 87.6275 44.4946 87.8348 44.5653C88.1153 44.6607 88.1678 42.8353 88.0408 37.4206C87.9468 33.4204 87.8044 29.9362 87.7241 29.6778C87.6144 29.3264 87.35 29.4311 86.6718 30.0946C86.1733 30.5824 85.3985 30.9811 84.9499 30.9811C84.5009 30.9811 82.5455 30.4497 80.6042 29.8002C75.6381 28.1388 71.8497 27.698 67.8439 28.3152ZM63.0503 35.5742C60.9346 37.9228 58.4545 42.4378 58.0646 44.651C57.8645 45.7883 57.9226 45.8676 60.3505 47.7704C64.32 50.8811 66.3606 54.7707 66.8677 60.1937C67.2321 64.0913 66.0658 68.5673 63.9054 71.561C63.3882 72.2775 63.4163 72.3259 64.9094 73.2928C67.5138 74.9798 68.0797 74.9608 70.1941 73.1161C75.0788 68.8547 77.8857 62.4856 77.89 55.6536C77.8932 50.3497 76.3424 45.9447 73.0264 41.8397C71.2921 39.6922 67.9843 36.9542 65.3665 35.4989L63.8688 34.666L63.0503 35.5742ZM31.3306 54.2089C30.9946 54.552 31.0694 76.3252 31.4067 76.3252C31.5683 76.3252 32.2033 75.8117 32.8175 75.1846C34.541 73.4245 35.7099 73.3575 39.1616 74.8198C45.2368 77.3941 48.7767 78.3256 52.4848 78.3256C55.9914 78.3256 55.0879 77.2457 51.2385 76.836C46.7384 76.3572 43.5465 74.6978 40.292 71.1446C37.2947 67.8728 34.9087 63.3034 33.1835 57.5314C32.7378 56.0404 32.3146 54.6327 32.2428 54.4033C32.1011 53.9489 31.6741 53.8579 31.3306 54.2089ZM3.6869 88.9445C5.20707 89.2919 6.17384 89.95 6.61429 90.9369C7.09685 92.0182 7.40637 91.6308 7.15497 90.2608C7.00184 89.4272 6.77525 89.1492 6.21792 89.1102C5.81339 89.0818 4.82148 88.9741 4.01339 88.8711C2.82331 88.7191 2.76127 88.7331 3.6869 88.9445ZM9.56029 89.5046C8.92753 91.2043 9.17502 91.5204 10.2557 90.3918C11.022 89.5913 11.5604 89.3282 12.4322 89.3282C14.017 89.3282 13.6644 89.1302 11.6009 88.8615C9.96352 88.6481 9.86818 88.6781 9.56029 89.5046ZM17.2366 88.9148C14.863 88.9838 13.8113 89.1238 14.1349 89.3276C14.5205 89.5703 14.6478 90.5688 14.733 94.0187C14.8574 99.0545 14.719 99.9124 13.7169 100.324C13.1998 100.537 13.6938 100.617 15.4409 100.605C16.7877 100.595 17.6326 100.518 17.3185 100.435C16.4634 100.206 16.2571 98.9545 16.2571 93.996V89.4949L17.3633 89.3869C18.9618 89.2312 19.8793 89.5469 20.8353 90.5825L21.6783 91.4954L21.5797 90.1874C21.5255 89.4683 21.3342 88.8641 21.1546 88.8451C20.975 88.8261 19.2119 88.8574 17.2366 88.9148ZM23.8805 89.3529C24.5241 89.965 24.5828 90.3565 24.5828 94.0257C24.5828 98.5921 24.9172 99.639 26.6081 100.367C28.8786 101.345 32.5801 100.558 33.4417 98.9141C33.6559 98.5057 33.9008 96.3182 33.9863 94.0533C34.1222 90.4501 34.2253 89.8553 34.8111 89.2982C35.4781 88.6637 35.4758 88.6614 34.1672 88.6614C32.5951 88.6614 32.2797 88.9005 32.949 89.5839C33.3572 90.0007 33.4287 90.8739 33.3418 94.3704C33.2458 98.2136 33.1642 98.7194 32.537 99.3589C31.7168 100.195 29.4039 100.552 28.1097 100.041C26.4974 99.4053 26.2134 98.5067 26.1915 93.98C26.1742 90.4115 26.2496 89.794 26.7456 89.4232C27.2725 89.0302 27.2542 88.9911 26.5226 88.9495C26.0844 88.9245 25.1522 88.8544 24.4519 88.7941L23.1779 88.6844L23.8805 89.3529ZM38.1152 89.0885C38.7016 89.5439 38.7444 89.964 38.6699 94.5321C38.6046 98.5247 38.4874 99.5967 38.0653 100.073C37.5693 100.633 37.65 100.664 39.5874 100.664C41.5996 100.664 41.6215 100.655 40.9156 100.071C40.2388 99.5113 40.2002 99.2292 40.2329 95.0742C40.2522 92.6523 40.4157 90.2735 40.5966 89.7873C40.9065 88.9551 41.0185 88.9155 42.5315 89.0982C45.0468 89.4026 46.073 90.1167 47.0153 92.2189C47.9458 94.2941 47.9151 95.7924 46.899 97.8796C46.1379 99.4436 45.0631 100.249 43.1926 100.659C41.7283 100.979 41.7292 100.98 43.637 100.842C48.2481 100.511 50.7207 96.1515 48.6621 91.9828C47.4854 89.6 45.8817 88.8968 41.2454 88.7304C37.869 88.6094 37.5452 88.6464 38.1152 89.0885ZM53.1515 88.8538C52.9468 88.9415 52.8638 90.9923 52.9295 94.3501C53.0033 98.1463 52.9203 99.846 52.6444 100.185C52.3143 100.591 52.519 100.664 53.9902 100.664C55.5398 100.664 55.6597 100.616 55.1128 100.207C54.5623 99.796 54.4983 99.2372 54.479 94.6508C54.463 90.8522 54.5616 89.5163 54.8656 89.4122C55.6175 89.1549 55.2838 88.6611 54.3759 88.6877C53.8819 88.7021 53.3311 88.7771 53.1515 88.8538ZM61.9669 89.1258C57.5618 91.097 56.9291 97.2391 60.8572 99.8921C64.2286 102.169 68.5609 100.212 69.6896 95.9028C70.8869 91.331 66.2101 87.2271 61.9669 89.1258ZM79.1806 89.5513C74.927 92.4083 75.8869 99.2186 80.7534 100.708C82.858 101.351 85.7553 100.315 86.6493 98.5984C86.9487 98.0236 86.7074 98.145 85.6897 99.0805C84.5515 100.127 84.0954 100.331 82.887 100.331C80.1941 100.331 78.333 97.9279 78.3575 94.4828C78.3827 90.9883 79.878 88.9928 82.4701 88.9961C83.7516 88.9975 85.5043 90.0397 85.7942 90.9723C86.1449 92.0999 86.6176 91.7578 86.6176 90.3765C86.6176 89.2035 86.5386 89.0878 85.7197 89.0588C85.2258 89.0411 83.8669 88.9338 82.6996 88.8201C80.7462 88.6297 80.4664 88.6877 79.1806 89.5513ZM89.3893 89.1178C89.9091 89.5056 90.0224 90.1517 90.1451 93.4302C90.3208 98.1156 90.0638 100.231 89.2943 100.438C88.9893 100.52 89.7683 100.587 91.0254 100.587C92.2824 100.587 93.0454 100.517 92.7209 100.431C91.7724 100.18 91.5151 98.8885 91.5151 94.3817C91.5151 91.0853 91.6281 89.9787 92.0235 89.4026C92.5308 88.6624 92.5292 88.6614 90.6551 88.6614C88.9867 88.6614 88.8463 88.7121 89.3893 89.1178ZM96.4126 89.3282C97.1371 90.0681 97.2468 92.0662 96.8498 97.2768C96.6669 99.677 96.5442 100.096 95.9538 100.339C95.4788 100.536 95.9656 100.629 97.5465 100.643C99.735 100.664 99.7938 100.644 99.068 100.124C98.3269 99.594 98.3158 99.4973 98.4444 94.7065C98.5162 92.0235 98.6922 89.5656 98.8349 89.2449C99.0634 88.7307 98.8963 88.6614 97.427 88.6614H95.7596L96.4126 89.3282ZM101.449 89.1162C102.873 89.4459 103.623 89.8377 104.29 90.6002C106.005 92.5613 106.279 95.9375 104.908 98.2397C104.11 99.5787 103.076 100.268 101.271 100.665C99.8421 100.98 99.8428 100.98 101.681 100.85C105.188 100.603 107.223 98.6674 107.435 95.3803C107.677 91.6141 105.522 89.2565 101.473 88.8601L99.5143 88.6684L101.449 89.1162ZM113.241 89.6343C112.631 90.8392 112.616 91.0219 113.147 90.8139C113.567 90.6492 115.41 94.9245 115.129 95.413C114.918 95.7777 111.432 95.7197 111.432 95.3513C111.432 95.1799 111.583 94.6338 111.767 94.138C111.952 93.6422 112.045 93.1775 111.974 93.1054C111.904 93.0331 111.354 94.3668 110.754 96.0692C110.153 97.7712 109.332 99.5016 108.929 99.9141L108.196 100.664L109.895 100.643C111.3 100.626 111.461 100.567 110.824 100.307C110.148 100.03 110.081 99.8454 110.273 98.7981C110.752 96.1915 110.972 95.9965 113.434 95.9965H115.658L116.196 97.8882C116.708 99.6867 116.706 99.8024 116.143 100.222C115.626 100.608 115.786 100.664 117.409 100.664C119.196 100.664 119.245 100.641 118.682 100.066C118.36 99.737 117.234 97.1054 116.181 94.218C115.128 91.3307 114.148 88.8941 114.005 88.8038C113.862 88.7134 113.518 89.0872 113.241 89.6343ZM0.896957 89.8133C-0.659789 91.4027 0.225351 93.8893 2.63099 94.6838C6.77296 96.0518 7.96794 97.9596 5.96422 100.006C5.60964 100.368 5.47775 100.664 5.67104 100.664C5.86433 100.664 6.45202 100.226 6.97703 99.6897C7.70186 98.9495 7.93138 98.4057 7.93138 97.4298C7.93138 95.6544 7.2503 94.8249 5.12675 94.0133C1.86143 92.7657 1.4014 92.4263 1.4014 91.263C1.4014 90.6862 1.64464 89.94 1.94176 89.6046C2.77302 88.6664 1.83662 88.8534 0.896957 89.8133ZM66.3401 89.8497C68.6932 91.8718 68.4897 98.0136 66.011 99.7864C65.1431 100.407 63.0584 100.505 62.0809 99.9704C60.437 99.0722 59.5757 94.0967 60.6215 91.5407C61.6532 89.0185 64.4206 88.2003 66.3401 89.8497ZM0.0650468 97.1387C-0.0126599 97.2181 -0.0221368 97.9789 0.0441425 98.8291C0.13295 99.9691 0.282162 100.329 0.6116 100.2C0.85778 100.103 1.57216 100.243 2.19904 100.511C2.82624 100.779 3.67481 100.984 4.08457 100.968C4.63504 100.945 4.53089 100.851 3.6869 100.607C2.34466 100.219 1.30345 99.3069 0.665146 97.9609C0.412762 97.4291 0.14308 97.0594 0.0650468 97.1387ZM44.8986 105.851C43.5655 106.804 44.0562 108.012 45.9666 108.48C47.3663 108.823 47.8645 109.308 47.4018 109.877C46.9565 110.425 46.0031 110.465 45.103 109.973C44.2825 109.524 43.9419 109.814 44.4927 110.492C44.9903 111.104 47.4577 111.18 48.0254 110.6C48.5367 110.078 48.5276 108.841 48.0091 108.404C47.7848 108.214 47.0871 107.924 46.4589 107.758C45.7605 107.574 45.2718 107.22 45.2016 106.847C45.1 106.309 45.2623 106.258 46.5885 106.411C48.156 106.591 48.5397 106.268 47.4593 105.677C46.5702 105.191 45.7419 105.248 44.8986 105.851ZM62.2934 105.717C61.2395 106.306 60.8242 107.046 60.8242 108.338C60.8242 109.881 61.9062 111 63.397 111C65.0661 111 65.7217 110.48 65.7217 109.155C65.7217 108.057 65.6652 107.999 64.5789 107.999C63.9504 107.999 63.4362 108.149 63.4362 108.333C63.4362 108.516 63.7402 108.666 64.1121 108.666C64.626 108.666 64.7628 108.846 64.6834 109.416C64.5391 110.452 63.0548 110.611 62.1501 109.687C61.3381 108.857 61.2973 108.076 62.0123 107.034C62.4786 106.354 62.7296 106.28 63.9713 106.454C65.4654 106.663 65.8598 106.276 64.7637 105.677C63.9622 105.239 63.1247 105.253 62.2934 105.717ZM24.1355 106.416C23.8795 107.392 23.8841 109.291 24.1453 110.287C24.3357 111.013 24.4813 111.063 25.9975 110.914C27.8899 110.728 28.8273 109.856 28.8273 108.281C28.8273 106.765 27.5455 105.665 25.7785 105.665C24.5551 105.665 24.3024 105.781 24.1355 106.416ZM34.3778 108.333V111H36.3368C37.8606 111 38.2958 110.889 38.2958 110.5C38.2958 110.129 37.9148 110 36.8265 110C35.5751 110 35.3573 109.901 35.3573 109.333C35.3573 108.765 35.5751 108.666 36.8265 108.666C37.6346 108.666 38.2958 108.516 38.2958 108.333C38.2958 108.149 37.6346 107.999 36.8265 107.999C35.4771 107.999 35.3573 107.931 35.3573 107.166C35.3573 106.4 35.4771 106.332 36.8265 106.332C37.6346 106.332 38.2958 106.182 38.2958 105.999C38.2958 105.813 37.425 105.665 36.3368 105.665H34.3778V108.333ZM54.2942 108.352C54.2942 110.059 54.4134 110.964 54.6207 110.833C54.8003 110.72 54.9472 109.511 54.9472 108.146C54.9472 106.715 54.8091 105.665 54.6207 105.665C54.43 105.665 54.2942 106.783 54.2942 108.352ZM71.5987 108.333C71.5987 109.889 71.7348 111 71.9252 111C72.1047 111 72.2517 110.25 72.2517 109.333C72.2517 108.416 72.3676 107.666 72.509 107.666C72.6507 107.666 73.319 108.341 73.9945 109.166C74.6701 109.991 75.3622 110.667 75.533 110.667C75.7034 110.667 75.8432 109.541 75.8432 108.166C75.8432 106.249 75.737 105.665 75.3874 105.665C75.0612 105.665 74.9508 106.05 74.9991 107.018C75.0364 107.762 74.9642 108.436 74.8385 108.515C74.7131 108.594 74.0699 107.986 73.4091 107.162C72.7486 106.339 72.0708 105.665 71.9033 105.665C71.7358 105.665 71.5987 106.866 71.5987 108.333ZM81.788 108.249L81.8834 110.833L83.7608 110.933C85.2809 111.014 85.6381 110.935 85.6381 110.517C85.6381 110.126 85.2783 110 84.1689 110C82.9174 110 82.6996 109.901 82.6996 109.333C82.6996 108.765 82.9174 108.666 84.1689 108.666C84.977 108.666 85.6381 108.516 85.6381 108.333C85.6381 108.149 84.977 107.999 84.1689 107.999C82.8195 107.999 82.6996 107.931 82.6996 107.166C82.6996 106.4 82.8195 106.332 84.1689 106.332C84.977 106.332 85.6381 106.182 85.6381 105.999C85.6381 105.813 84.7628 105.665 83.6654 105.665H81.6927L81.788 108.249ZM91.5151 108.333C91.5151 109.8 91.6522 111 91.8201 111C91.9876 111 92.1714 110.599 92.2282 110.109C92.3754 108.838 92.9171 108.813 94.2597 110.017C94.9953 110.677 95.4331 110.894 95.4331 110.601C95.4331 110.344 95.2604 109.957 95.0491 109.741C94.7546 109.44 94.7925 109.205 95.2124 108.731C95.8503 108.011 95.9303 106.64 95.3678 106.066C95.1523 105.845 94.1973 105.665 93.2455 105.665H91.5151V108.333ZM27.3525 106.874C28.1923 107.732 27.8733 109.403 26.7668 109.942C25.3537 110.63 24.9093 110.261 24.9093 108.399C24.9093 107.507 25.0073 106.677 25.1271 106.555C25.53 106.143 26.8174 106.328 27.3525 106.874ZM94.7801 106.832C95.3583 107.544 94.6452 108.333 93.4238 108.333C92.4329 108.333 91.9578 107.706 92.2863 106.832C92.3937 106.546 92.8809 106.332 93.4238 106.332C93.9462 106.332 94.5564 106.557 94.7801 106.832Z" fill="white"/>
</svg>
